<svg width="230" height="230" viewBox="0 0 230 230" fill="none" xmlns="http://www.w3.org/2000/svg">
<path d="M107.831 229.96C103.621 229.38 99.392 228.96 95.2027 228.22C49.5304 220.552 12.3566 184.841 2.63828 139.372C-2.6614 115.08 0.0687531 89.725 10.4182 67.1183C20.7677 44.5116 38.1771 25.8755 60.0286 14.0121C81.385 2.31496 104.291 -1.984 128.497 0.835319C131.497 1.18523 133.316 3.34471 132.936 5.92409C132.556 8.50347 130.257 10.0531 127.257 9.70318C73.7863 3.35471 23.3848 39.0061 11.6768 91.4634C6.16855 115.701 9.35128 141.103 20.669 163.232C31.9867 185.362 50.7199 202.812 73.5963 212.534C126.047 235.049 188.117 211.215 211.283 159.027C227.47 122.556 223.851 87.3644 201.765 54.0525C201.318 53.3404 200.699 52.7524 199.965 52.3429C199.965 53.6226 199.965 54.9123 199.965 56.202C199.885 59.0013 198.135 61.0008 195.646 61.0008C195.026 61.0163 194.41 60.9046 193.836 60.6726C193.261 60.4405 192.74 60.0931 192.306 59.6517C191.871 59.2103 191.531 58.6844 191.308 58.1065C191.084 57.5286 190.982 56.911 191.007 56.2919C190.927 50.7533 190.917 45.2146 191.007 39.6759C190.968 39.0475 191.064 38.4181 191.289 37.83C191.513 37.2419 191.862 36.7087 192.31 36.2663C192.758 35.824 193.295 35.4827 193.886 35.2655C194.477 35.0483 195.108 34.9602 195.736 35.0071C201.265 34.9471 206.814 34.9471 212.353 35.0071C212.94 35.0005 213.522 35.1096 214.067 35.3281C214.612 35.5466 215.108 35.8703 215.528 36.2806C215.947 36.691 216.282 37.1799 216.513 37.7196C216.744 38.2593 216.866 38.8391 216.872 39.426C216.879 40.0129 216.77 40.5953 216.551 41.14C216.333 41.6847 216.009 42.181 215.599 42.6007C215.188 43.0203 214.699 43.355 214.159 43.5856C213.62 43.8163 213.04 43.9384 212.453 43.9449C210.303 44.0249 208.154 43.9449 205.664 43.9449C206.184 44.7547 206.504 45.3046 206.884 45.8045C220.148 63.3327 228.052 84.3267 229.64 106.25C229.723 106.922 229.844 107.59 230 108.249V122.166C229.88 122.746 229.71 123.326 229.63 123.906C228.85 129.224 228.35 134.603 227.26 139.902C218.062 184.471 179.928 220.952 135.056 228.23C130.787 228.92 126.487 229.41 122.208 230L107.831 229.96Z" fill="#6768A7"/>
<path d="M114.93 37.8565C101.226 38.0916 87.8184 41.8885 76.0262 48.8738C75.2097 49.3959 74.3616 49.8667 73.4866 50.2835C72.4855 50.7321 71.3519 50.7867 70.3122 50.4365C69.2726 50.0862 68.4032 49.3569 67.8776 48.394C67.3565 47.4744 67.179 46.3997 67.3768 45.3614C67.5746 44.3232 68.1347 43.3889 68.9574 42.7253C69.4325 42.3563 69.9338 42.0222 70.4571 41.7256C120.019 11.5928 184.728 38.4963 198.346 94.9327C201.07 106.257 201.458 118.017 199.485 129.496C197.513 140.975 193.221 151.931 186.873 161.696C180.524 171.461 172.252 179.83 162.561 186.291C152.869 192.753 141.963 197.172 130.507 199.278C83.5149 207.955 38.3126 176.283 30.5239 129.184C27.0345 108.12 31.0338 88.4543 41.932 70.1387C42.9918 68.3491 44.3215 67.0394 46.5312 67.1394C49.9706 67.2594 51.7303 70.8285 50.0606 74.0877C47.821 78.4767 45.3014 82.7557 43.5217 87.3246C26.8245 130.134 51.7003 178.173 96.2628 189.41C138.966 200.177 182.308 172.574 190.397 129.424C192.303 119.386 192.191 109.068 190.068 99.0728C187.945 89.0777 183.853 79.6053 178.031 71.2078C172.208 62.8103 164.773 55.6559 156.157 50.1616C147.541 44.6673 137.918 40.9431 127.847 39.2062C123.588 38.4763 119.239 38.2964 114.93 37.8565Z" fill="#6768A7"/>
<path d="M99.542 114.128C99.6919 112.691 100.028 111.28 100.542 109.929C101.452 108.04 100.832 107.01 99.542 105.72C95.1327 101.461 90.8235 97.0822 86.5442 92.7232C85.7581 92.0657 85.2275 91.1533 85.0448 90.145C84.8621 89.1366 85.0389 88.096 85.5444 87.2046C85.933 86.3624 86.6023 85.6816 87.4376 85.2785C88.273 84.8755 89.2225 84.7753 90.1236 84.9951C91.3296 85.3822 92.417 86.0703 93.2831 86.9946C97.6223 91.2203 101.908 95.5059 106.141 99.8515C107.201 100.931 108.041 101.321 109.6 100.661C111.329 99.9215 113.189 99.5401 115.069 99.5401C116.949 99.5401 118.81 99.9215 120.538 100.661C121.08 100.956 121.711 101.044 122.313 100.907C122.914 100.771 123.446 100.421 123.808 99.9215C133.086 90.5904 142.395 81.2593 151.733 71.9283C152.344 71.2689 153.013 70.6665 153.733 70.1287C154.577 69.5572 155.592 69.295 156.607 69.3863C157.622 69.4776 158.574 69.9169 159.303 70.6298C160.031 71.3427 160.49 72.2854 160.603 73.2981C160.716 74.3109 160.475 75.3315 159.922 76.1872C159.361 76.9769 158.721 77.7072 158.012 78.3667C148.8 87.5845 139.575 96.7923 130.337 105.99C129.757 106.42 129.351 107.046 129.195 107.751C129.039 108.456 129.143 109.194 129.487 109.829C130.563 112.686 130.749 115.802 130.019 118.766C129.289 121.731 127.678 124.405 125.398 126.435C123.171 128.461 120.395 129.783 117.419 130.237C114.443 130.69 111.4 130.255 108.67 128.984C102.691 126.185 99.742 121.326 99.542 114.128ZM115.019 108.569C113.358 108.622 111.782 109.316 110.622 110.506C109.461 111.695 108.807 113.288 108.795 114.95C108.783 116.611 109.416 118.213 110.559 119.419C111.703 120.624 113.269 121.34 114.929 121.416C115.794 121.456 116.657 121.321 117.468 121.019C118.279 120.717 119.02 120.254 119.648 119.659C120.276 119.063 120.777 118.347 121.121 117.554C121.466 116.76 121.647 115.905 121.653 115.04C121.659 114.174 121.49 113.317 121.157 112.519C120.823 111.72 120.332 110.997 119.713 110.393C119.094 109.789 118.359 109.316 117.552 109.003C116.746 108.689 115.884 108.542 115.019 108.569V108.569Z" fill="#6768A7"/>
<path d="M176.08 119.497C175.08 119.497 174.14 119.497 173.17 119.497C172.079 119.464 171.039 119.026 170.254 118.268C169.468 117.51 168.993 116.487 168.921 115.398C168.806 114.306 169.115 113.212 169.786 112.342C170.456 111.473 171.435 110.895 172.521 110.729C174.89 110.479 177.28 110.479 179.649 110.729C180.208 110.799 180.747 110.979 181.236 111.26C181.724 111.541 182.151 111.916 182.493 112.364C182.834 112.811 183.083 113.322 183.225 113.867C183.367 114.412 183.399 114.98 183.319 115.538C183.233 116.628 182.738 117.647 181.934 118.388C181.129 119.13 180.074 119.54 178.979 119.537C178.01 119.537 177.01 119.497 176.08 119.497Z" fill="#6768A7"/>
<path d="M110.5 175.973C110.5 175.083 110.5 174.184 110.5 173.294C110.493 172.164 110.921 171.075 111.696 170.252C112.47 169.43 113.531 168.937 114.659 168.875C115.791 168.78 116.914 169.132 117.789 169.855C118.663 170.578 119.22 171.615 119.339 172.744C119.549 174.969 119.549 177.208 119.339 179.432C119.227 180.563 118.672 181.603 117.795 182.324C116.918 183.046 115.79 183.39 114.659 183.281C113.531 183.232 112.465 182.745 111.689 181.924C110.912 181.103 110.486 180.012 110.5 178.883C110.46 177.973 110.5 176.973 110.5 175.973Z" fill="#6768A7"/>
<path d="M119.539 53.7627C119.539 54.7624 119.539 55.7022 119.539 56.672C119.548 57.803 119.119 58.8937 118.342 59.7156C117.564 60.5374 116.499 61.0267 115.369 61.0809C114.238 61.1758 113.114 60.8224 112.241 60.0968C111.368 59.3712 110.814 58.3315 110.7 57.2018C110.485 54.9742 110.485 52.7311 110.7 50.5035C110.757 49.9441 110.922 49.4013 111.189 48.9061C111.455 48.4108 111.816 47.9729 112.251 47.6173C112.687 47.2617 113.188 46.9954 113.727 46.8336C114.265 46.6718 114.83 46.6177 115.389 46.6744C116.518 46.7262 117.583 47.2154 118.357 48.0384C119.132 48.8613 119.556 49.9534 119.539 51.0833C119.579 52.0031 119.539 52.8729 119.539 53.7627Z" fill="#6768A7"/>
<path d="M53.8902 110.469C54.8901 110.469 55.8299 110.469 56.7998 110.469C57.9206 110.508 58.9854 110.969 59.78 111.76C60.5747 112.552 61.0403 113.614 61.0834 114.735C61.1265 115.856 60.7437 116.951 60.0121 117.801C59.2805 118.651 58.2543 119.193 57.1397 119.317C54.9874 119.502 52.8231 119.502 50.6708 119.317C49.5423 119.213 48.4964 118.68 47.7476 117.83C46.9988 116.979 46.6037 115.874 46.6433 114.742C46.683 113.609 47.1543 112.535 47.9608 111.738C48.7672 110.942 49.8477 110.484 50.9807 110.459C51.9506 110.419 52.9204 110.469 53.8902 110.469Z" fill="#6768A7"/>
<path d="M150.544 9.09339C150.508 10.2637 150.012 11.3727 149.165 12.1808C148.317 12.9889 147.186 13.4313 146.015 13.4123C144.843 13.3565 143.737 12.8558 142.921 12.0125C142.106 11.1691 141.642 10.0465 141.626 8.87344C141.645 8.27466 141.783 7.68563 142.031 7.14031C142.279 6.59499 142.633 6.10418 143.071 5.69617C143.51 5.28816 144.025 4.97103 144.587 4.76307C145.149 4.55511 145.747 4.46043 146.345 4.4845C146.925 4.50751 147.494 4.64546 148.02 4.89033C148.546 5.1352 149.018 5.4821 149.409 5.9109C149.799 6.33971 150.101 6.84185 150.296 7.38818C150.491 7.93451 150.575 8.51413 150.544 9.09339V9.09339Z" fill="#6768A7"/>
<path d="M62.0286 57.4918C62.0446 58.6683 61.5939 59.8033 60.775 60.6484C59.9562 61.4934 58.8359 61.9797 57.6593 62.0007C57.06 62.0087 56.465 61.8973 55.9091 61.6732C55.3532 61.449 54.8475 61.1165 54.4213 60.695C53.9952 60.2736 53.6571 59.7715 53.4268 59.2182C53.1966 58.6648 53.0787 58.0712 53.0801 57.4718C53.1259 56.2999 53.6187 55.19 54.4573 54.3701C55.2959 53.5502 56.4166 53.0824 57.5893 53.0629C58.7594 53.0808 59.8766 53.5529 60.705 54.3794C61.5333 55.2058 62.008 56.3219 62.0286 57.4918V57.4918Z" fill="#6768A7"/>
</svg>
