<svg width="230" height="230" viewBox="0 0 230 230" fill="none" xmlns="http://www.w3.org/2000/svg">
<path d="M184.541 1C186.241 1.5577 187.981 1.99589 189.611 2.69301C194.342 4.72544 198.075 8.53609 199.998 13.2958C201.921 18.0555 201.879 23.379 199.881 28.1081C199.561 28.855 199.221 29.6019 198.741 30.6874C199.741 30.7472 200.461 30.8069 201.231 30.8268C211.331 31.1057 218.591 37.9375 219.391 47.9362C219.451 48.6831 219.481 49.43 219.481 50.167C219.481 87.8116 219.481 125.456 219.481 163.101C219.481 172.064 214.951 178.925 207.151 181.395C204.643 182.137 202.037 182.499 199.421 182.471C177.421 182.55 155.421 182.471 133.491 182.471H130.711C131.581 186.165 132.401 189.611 133.221 193.047C134.041 196.483 134.831 199.71 135.561 203.006C135.831 204.221 136.351 204.739 137.681 204.689C140.531 204.589 143.381 204.689 146.231 204.689C155.531 204.689 161.021 210.136 161.141 219.408V221.091H171.041C172.541 221.091 174.041 221.022 175.541 221.091C176.675 221.15 177.743 221.636 178.53 222.45C179.317 223.265 179.763 224.347 179.778 225.477C179.793 226.607 179.376 227.701 178.612 228.536C177.847 229.371 176.793 229.885 175.661 229.975C174.995 230.008 174.327 230.008 173.661 229.975H56.8512C56.2512 229.975 55.6512 229.975 55.0512 229.975C54.469 229.966 53.8944 229.842 53.3603 229.611C52.8262 229.38 52.3432 229.047 51.939 228.629C51.5348 228.212 51.2173 227.719 51.0049 227.179C50.7925 226.639 50.6893 226.063 50.7012 225.483C50.6917 224.902 50.7999 224.325 51.0194 223.787C51.2389 223.248 51.5652 222.759 51.9788 222.349C52.3923 221.939 52.8846 221.617 53.4263 221.4C53.968 221.184 54.5478 221.079 55.1312 221.091C59.1312 221.002 63.1312 221.091 67.0612 221.091H69.1412C69.2298 219.211 69.4167 217.336 69.7012 215.474C70.2363 212.665 71.6843 210.108 73.822 208.199C75.9598 206.29 78.6686 205.133 81.5312 204.908C85.2612 204.619 89.0212 204.838 92.7712 204.689C93.4512 204.689 94.5612 204.052 94.6912 203.514C96.4412 196.672 98.0512 189.79 99.7912 182.511H97.0012C74.8012 182.511 52.6012 182.511 30.4012 182.511C20.7812 182.511 13.5612 177.123 11.5212 168.459C11.1579 166.783 10.9835 165.073 11.0012 163.36C11.0012 125.562 11.0012 87.7684 11.0012 49.9778C11.0012 40.3575 16.5712 33.1174 25.4312 31.2352C27.2735 30.9214 29.1438 30.8012 31.0112 30.8766C70.2446 30.8766 109.468 30.8766 148.681 30.8766C149.445 30.9523 150.214 30.8041 150.895 30.4502C151.575 30.0964 152.137 29.5523 152.511 28.8849C155.701 23.9054 159.241 19.1949 162.301 14.1557C166.231 7.7322 170.981 2.6233 178.691 1H184.541ZM20.2312 143.412C20.2312 151.21 20.0712 158.649 20.3112 166.068C20.4112 169.176 22.5212 171.506 25.4112 172.631C27.2351 173.284 29.1637 173.598 31.1012 173.558C87.2146 173.604 143.321 173.604 199.421 173.558C200.323 173.576 201.224 173.539 202.121 173.448C206.861 172.87 210.231 169.654 210.391 164.913C210.621 157.992 210.451 151.05 210.391 144.119C210.391 143.93 210.201 143.741 210.011 143.402H71.2312C70.3312 143.402 69.4212 143.402 68.5312 143.352C67.4379 143.292 66.4064 142.828 65.6373 142.052C64.8683 141.275 64.4168 140.242 64.3706 139.152C64.3245 138.063 64.687 136.995 65.3876 136.157C66.0883 135.319 67.0769 134.77 68.1612 134.618C69.2114 134.475 70.2717 134.419 71.3312 134.449H210.481V131.89C210.481 104.669 210.481 77.4477 210.481 50.2267C210.492 49.5621 210.469 48.8973 210.411 48.235C210.265 45.9437 209.242 43.7956 207.553 42.2336C205.863 40.6715 203.636 39.8146 201.331 39.8396C198.781 39.7699 196.221 39.9293 193.681 39.7799C192.948 39.7142 192.211 39.8438 191.545 40.1553C190.879 40.4668 190.308 40.949 189.891 41.5526C177.625 56.5241 165.291 71.4624 152.891 86.3675C150.991 88.6481 149.791 90.7096 151.021 93.6973C151.344 94.8468 151.479 96.0405 151.421 97.2327C152.081 108.078 145.091 117.808 134.651 119.78C130.521 120.556 126.151 120.287 121.901 120.158C115.281 119.959 109.091 120.616 103.901 125.396C101.411 127.697 97.6712 126.392 96.7812 123.116C94.5812 114.95 93.1812 106.684 93.9612 98.1588C95.4312 82.0553 106.261 71.6682 122.461 70.8416C122.978 70.7916 123.48 70.6389 123.937 70.3926C124.394 70.1463 124.796 69.8114 125.121 69.4076C131.461 60.1757 137.691 50.8741 143.931 41.5824C144.261 41.0277 144.562 40.4559 144.831 39.8695H30.4812C23.4812 39.8695 19.9912 43.395 19.9912 50.3562C19.9912 77.5772 19.9912 104.798 19.9912 132.019V134.449C23.9212 134.449 27.5112 134.449 31.1012 134.449C32.1495 134.423 33.1971 134.523 34.2212 134.748C35.2128 135.035 36.0701 135.663 36.6412 136.52C37.2123 137.376 37.4603 138.407 37.3412 139.428C37.2596 140.525 36.7591 141.55 35.9426 142.291C35.1261 143.032 34.0556 143.433 32.9512 143.412C28.7612 143.412 24.5712 143.412 20.2312 143.412ZM159.781 63.9401L164.031 58.7615C172.498 48.5105 180.965 38.2628 189.431 28.0184C192.061 24.8615 193.131 21.3858 191.901 17.4222C191.376 15.4952 190.285 13.7678 188.77 12.4605C187.254 11.1532 185.381 10.3254 183.391 10.0825C181.419 9.67872 179.37 9.88158 177.516 10.6642C175.662 11.4468 174.091 12.7721 173.011 14.4644C164.201 27.411 155.491 40.4372 146.751 53.4335C146.646 53.6545 146.571 53.8892 146.531 54.1306L159.781 63.9401ZM104.011 114.292C110.631 111.036 117.471 110.836 124.411 111.305C126.279 111.429 128.153 111.429 130.021 111.305C136.231 110.886 140.411 107.68 141.961 102.232C142.805 99.0404 142.658 95.6691 141.541 92.562C141.216 91.8273 140.689 91.199 140.021 90.7494C135.495 87.3501 130.925 83.9907 126.311 80.671C125.731 80.2058 125.044 79.891 124.311 79.7548C117.061 78.9482 108.491 83.4595 105.411 89.873C101.661 97.7306 102.461 105.897 104.011 114.292ZM78.4612 220.952H152.001C152.451 215.365 150.941 213.692 145.581 213.692H84.8812C79.5112 213.692 78.0312 215.335 78.4612 220.952ZM109.031 182.61L103.801 204.52H126.681L121.421 182.61H109.031ZM141.331 61.4803L132.741 74.2476L144.231 82.7325L154.021 70.8715L141.331 61.4803Z" fill="#6768A7"/>
<path d="M50.8116 143.412C50.2299 143.411 49.6541 143.295 49.1171 143.072C48.5801 142.849 48.0925 142.523 47.6821 142.113C47.2716 141.702 46.9464 141.215 46.725 140.679C46.5036 140.144 46.3903 139.57 46.3916 138.99C46.4102 137.802 46.9021 136.669 47.7591 135.842C48.6162 135.014 49.7681 134.56 50.9616 134.578C52.1551 134.597 53.2923 135.087 54.1231 135.94C54.9539 136.794 55.4102 137.941 55.3916 139.13C55.3761 139.711 55.2451 140.284 55.0059 140.815C54.7668 141.346 54.4244 141.824 53.9985 142.222C53.5726 142.62 53.0717 142.931 52.5247 143.135C51.9777 143.339 51.3954 143.433 50.8116 143.412Z" fill="#6768A7"/>
</svg>
