<svg width="66" height="20" viewBox="0 0 66 20" fill="none" xmlns="http://www.w3.org/2000/svg">
<path d="M0 0.80629H2.38951V10.2731H4.73339V0.80629H7.12289V10.2731H9.46517V0.80629H11.8531V12.4368H0V0.80629Z" fill="#EFEDE8"/>
<path d="M23.7372 12.4369C23.0301 12.4369 22.4855 12.2602 22.1034 11.9069C21.7213 11.5536 21.4918 11.0616 21.415 10.4308H21.3029C21.1127 11.1257 20.6707 11.7249 20.0629 12.1119C19.4476 12.51 18.689 12.7088 17.7871 12.7082C16.613 12.7082 15.681 12.4006 14.9909 11.7853C14.3009 11.1699 13.9556 10.3131 13.9551 9.21484C13.9551 6.87096 15.6754 5.69902 19.1159 5.69902H21.1668V4.93213C21.1668 4.1962 20.9867 3.64039 20.6265 3.26468C20.2663 2.88898 19.6792 2.70219 18.8654 2.70433C18.1294 2.70433 17.536 2.84709 17.0851 3.1326C16.6322 3.4204 16.2414 3.7957 15.9355 4.2365L14.2921 2.83401C14.6534 2.1888 15.2359 1.64419 16.0396 1.20018C16.8433 0.756165 17.884 0.534425 19.1616 0.534959C20.6943 0.534959 21.8926 0.891985 22.7566 1.60604C23.6206 2.32009 24.0526 3.38342 24.0526 4.79605V10.2731H25.4279V12.4345L23.7372 12.4369ZM18.7525 10.7238C19.4463 10.7238 20.021 10.5621 20.4768 10.2387C20.6941 10.0957 20.8713 9.89947 20.9915 9.66872C21.1117 9.43797 21.171 9.18033 21.1636 8.92025V7.36487H19.184C17.6064 7.36487 16.8174 7.86092 16.8169 8.85301V9.30369C16.8169 9.76959 16.9895 10.1226 17.3348 10.3628C17.6801 10.6029 18.1527 10.7233 18.7525 10.7238Z" fill="#EFEDE8"/>
<path d="M27.9277 0.80629H38.0261V12.4368H35.1443V3.05971H30.8128V12.4368H27.9309L27.9277 0.80629Z" fill="#EFEDE8"/>
<path d="M41.5879 0.80629H44.4697V5.38118H46.2957L48.8885 0.80629H52.0217L49.6322 4.96892C49.3771 5.4188 49.1102 5.73713 48.8317 5.92392C48.5479 6.11396 48.2302 6.24767 47.8959 6.31777V6.45385C48.2532 6.5155 48.5899 6.66394 48.8765 6.88612C49.1391 7.09959 49.4059 7.46382 49.677 7.97881L50.8513 10.1826H52.1137V12.4368H50.5367C49.9801 12.4368 49.507 12.3127 49.1174 12.0646C48.7252 11.8172 48.373 11.4082 48.0568 10.8366L46.3213 7.6346H44.4729V12.4376H41.5911L41.5879 0.80629Z" fill="#EFEDE8"/>
<path d="M64.3085 12.4369C63.6013 12.4369 63.0565 12.2602 62.6738 11.9069C62.2912 11.5536 62.062 11.0616 61.9862 10.4308H61.8741C61.6836 11.1256 61.2417 11.7247 60.6341 12.1119C60.0178 12.51 59.2589 12.7088 58.3575 12.7082C57.1834 12.7082 56.2516 12.4006 55.5621 11.7853C54.8726 11.1699 54.5258 10.3131 54.5215 9.21484C54.5215 6.87096 56.242 5.69902 59.6831 5.69902H61.7372V4.93213C61.7372 4.1962 61.5569 3.64039 61.1961 3.26468C60.8353 2.88898 60.2483 2.70219 59.435 2.70433C58.6985 2.70433 58.1051 2.84709 57.6547 3.1326C57.2017 3.42018 56.8108 3.79552 56.5051 4.2365L54.8633 2.83401C55.2235 2.1888 55.806 1.64419 56.6108 1.20018C57.4156 0.756165 58.4562 0.534425 59.7328 0.534959C61.2655 0.534959 62.4636 0.891985 63.327 1.60604C64.1905 2.32009 64.6228 3.38342 64.6239 4.79605V10.2731H65.9991V12.4345L64.3085 12.4369ZM59.3269 10.7238C60.018 10.7238 60.5928 10.5621 61.0512 10.2387C61.2683 10.0955 61.4452 9.8992 61.5653 9.66849C61.6853 9.43777 61.7445 9.18023 61.7372 8.92025V7.36487H59.7544C58.1774 7.36487 57.3886 7.86092 57.3881 8.85301V9.30369C57.3881 9.76959 57.5607 10.1226 57.906 10.3628C58.2513 10.6029 58.7249 10.7233 59.3269 10.7238V10.7238Z" fill="#EFEDE8"/>
<path d="M18.0684 16.0672H19.4292C19.5225 16.062 19.6158 16.0756 19.7037 16.1072C19.7916 16.1389 19.8722 16.1879 19.9407 16.2513C20.004 16.3163 20.0531 16.3936 20.085 16.4785C20.117 16.5633 20.1311 16.6538 20.1265 16.7444C20.1265 17.0774 19.9525 17.2642 19.6045 17.3047V17.3312C19.778 17.3336 19.9437 17.403 20.0672 17.5249C20.1691 17.6389 20.2235 17.7875 20.2193 17.9403C20.2201 18.0443 20.2025 18.1475 20.1673 18.2453C20.1347 18.3386 20.0841 18.4245 20.0184 18.4983C19.9512 18.5722 19.8695 18.6314 19.7782 18.672C19.674 18.7162 19.5616 18.738 19.4484 18.736H18.0684V16.0672ZM19.3179 17.1879C19.4151 17.1933 19.5107 17.1621 19.5861 17.1006C19.6196 17.069 19.6457 17.0303 19.6626 16.9874C19.6795 16.9445 19.6867 16.8984 19.6838 16.8525V16.7388C19.6866 16.6924 19.6794 16.646 19.6625 16.6027C19.6457 16.5595 19.6196 16.5204 19.5861 16.4882C19.5117 16.4247 19.4156 16.3923 19.3179 16.3978H18.4814V17.1879H19.3179ZM19.3388 18.4006C19.4561 18.4087 19.5722 18.3721 19.6638 18.2982C19.7021 18.2618 19.732 18.2176 19.7515 18.1685C19.771 18.1194 19.7795 18.0667 19.7766 18.014V17.8955C19.7799 17.8434 19.7717 17.7913 19.7526 17.7427C19.7336 17.6942 19.704 17.6504 19.6662 17.6145C19.584 17.5436 19.4776 17.5072 19.3692 17.5129H18.4814V18.4006H19.3388Z" fill="#EFEDE8"/>
<path d="M22.209 18.7937C22.0314 18.7969 21.855 18.7634 21.691 18.6952C21.5404 18.6326 21.4059 18.5365 21.298 18.4142C21.1859 18.2863 21.1007 18.1371 21.0474 17.9756C20.9295 17.6017 20.9295 17.2007 21.0474 16.8268C21.1015 16.6648 21.1869 16.5149 21.2988 16.3857C21.4042 16.2644 21.5351 16.1679 21.6822 16.1032C21.8403 16.0367 22.0103 16.0034 22.1817 16.0055C22.3493 16.0034 22.5154 16.0367 22.6692 16.1032C22.8114 16.1666 22.9388 16.259 23.0431 16.3745C23.1501 16.4938 23.2318 16.6335 23.2832 16.7852C23.3392 16.9534 23.3662 17.1299 23.3633 17.3071V17.5033H21.3916V17.6273C21.3909 17.7366 21.4099 17.845 21.4477 17.9475C21.4825 18.0439 21.537 18.132 21.6078 18.2061C21.6804 18.2803 21.7684 18.3377 21.8655 18.3742C21.9735 18.4147 22.0881 18.4347 22.2034 18.4334C22.3671 18.4376 22.5285 18.3945 22.6685 18.3094C22.7989 18.2272 22.9029 18.109 22.9678 17.9691L23.2728 18.1749C23.1895 18.359 23.0517 18.5132 22.8782 18.6168C22.6762 18.7375 22.4442 18.7988 22.209 18.7937V18.7937ZM22.1841 16.3465C22.0759 16.3451 21.9685 16.366 21.8687 16.4082C21.7746 16.4476 21.6894 16.5056 21.6182 16.5787C21.5471 16.6524 21.4909 16.7391 21.4525 16.834C21.4129 16.9361 21.3931 17.0448 21.394 17.1542V17.1911H22.9222V17.1342C22.9233 17.0251 22.9049 16.9167 22.8678 16.814C22.8337 16.7223 22.7829 16.6376 22.7181 16.5643C22.6536 16.4943 22.5743 16.4396 22.4859 16.4042C22.3902 16.3649 22.2876 16.3453 22.1841 16.3465V16.3465Z" fill="#EFEDE8"/>
<path d="M25.2683 18.7937C25.1007 18.7963 24.9344 18.7627 24.7808 18.6952C24.6321 18.6284 24.5025 18.5255 24.4038 18.3958C24.29 18.2438 24.2068 18.0712 24.1589 17.8875C24.0961 17.6491 24.0664 17.4031 24.0708 17.1566C24.0663 16.821 24.0931 16.4858 24.1508 16.1552C24.1913 15.9149 24.2754 15.684 24.399 15.474C24.5009 15.3026 24.6494 15.1638 24.8273 15.0737C25.0229 14.9823 25.2344 14.9295 25.4501 14.9184L26.265 14.8672V15.2746L25.4084 15.3323C25.2783 15.3373 25.15 15.3644 25.029 15.4123C24.9229 15.4574 24.8316 15.5315 24.7656 15.6261C24.6866 15.7431 24.6297 15.8736 24.5975 16.0111C24.5499 16.2061 24.5188 16.4048 24.5047 16.6051H24.5311C24.5927 16.4456 24.6981 16.3068 24.8353 16.2048C24.9792 16.1056 25.1513 16.0556 25.326 16.0623C25.4855 16.0607 25.6437 16.0923 25.7903 16.1552C25.9291 16.2159 26.0525 16.307 26.1513 16.4218C26.2579 16.5472 26.3379 16.6928 26.3867 16.85C26.4462 17.0376 26.4751 17.2336 26.4723 17.4304C26.4746 17.6184 26.4449 17.8055 26.3843 17.9835C26.33 18.141 26.2458 18.2865 26.1361 18.4118C26.0317 18.5319 25.9021 18.6275 25.7567 18.692C25.6031 18.7607 25.4365 18.7953 25.2683 18.7937ZM25.2683 18.4374C25.3695 18.4412 25.4703 18.4247 25.5649 18.3888C25.6595 18.3529 25.7459 18.2984 25.8191 18.2285C25.9616 18.0884 26.0328 17.8851 26.0328 17.6169V17.2911C26.0328 17.0024 25.9632 16.7855 25.8239 16.6403C25.7534 16.568 25.6686 16.5114 25.5748 16.474C25.481 16.4366 25.3804 16.4194 25.2796 16.4234C25.0175 16.4234 24.8235 16.4863 24.6976 16.6123C24.6353 16.6754 24.5865 16.7505 24.5541 16.8331C24.5218 16.9156 24.5066 17.0039 24.5095 17.0926V17.6145C24.5095 17.8827 24.5799 18.086 24.7192 18.2261C24.7915 18.2969 24.8775 18.3521 24.972 18.3884C25.0664 18.4248 25.1672 18.4415 25.2683 18.4374V18.4374Z" fill="#EFEDE8"/>
<path d="M31.552 18.7937C31.3757 18.7973 31.2007 18.7629 31.0389 18.6928C30.8926 18.6295 30.7628 18.5333 30.6595 18.4118C30.5519 18.2832 30.4718 18.1339 30.4241 17.9731C30.3687 17.7872 30.3417 17.594 30.3441 17.4C30.3404 17.2059 30.3674 17.0125 30.4241 16.8268C30.4736 16.6651 30.5553 16.5151 30.6643 16.3857C30.767 16.2643 30.8959 16.1676 31.0413 16.1032C31.2014 16.0359 31.3737 16.0026 31.5472 16.0055C31.7698 15.9956 31.99 16.0552 32.1772 16.176C32.3365 16.2864 32.4603 16.4408 32.5335 16.6203L32.2005 16.7956C32.1579 16.6653 32.0735 16.5527 31.9603 16.4754C31.8362 16.3963 31.6911 16.3567 31.544 16.3617C31.4345 16.3603 31.3256 16.3804 31.2238 16.421C31.1323 16.4585 31.0503 16.5159 30.9837 16.5891C30.9176 16.6651 30.8684 16.7543 30.8396 16.8508C30.8062 16.9559 30.7897 17.0656 30.7908 17.1758V17.6313C30.79 17.74 30.8065 17.8481 30.8396 17.9515C30.8697 18.0472 30.9199 18.1354 30.9869 18.2101C31.0534 18.2833 31.1355 18.3408 31.227 18.3782C31.3326 18.4192 31.4452 18.4394 31.5585 18.4374C31.7156 18.4435 31.8707 18.4001 32.0019 18.3134C32.123 18.2256 32.219 18.1078 32.2805 17.9715L32.5751 18.1725C32.4956 18.3519 32.3675 18.5055 32.2053 18.616C32.0113 18.7417 31.783 18.8038 31.552 18.7937V18.7937Z" fill="#EFEDE8"/>
<path d="M34.3514 16.4234H33.3691V16.0672H35.7442V16.4234H34.762V18.732H34.3498L34.3514 16.4234Z" fill="#EFEDE8"/>
<path d="M38.5171 16.0671H38.9301L37.6077 19.3148C37.5806 19.3846 37.5462 19.4514 37.5052 19.5141C37.4692 19.5681 37.4236 19.615 37.3707 19.6526C37.314 19.6899 37.2511 19.717 37.185 19.7327C37.1007 19.7533 37.0141 19.763 36.9273 19.7615H36.5342V19.4044H37.1538L37.4532 18.6768L36.3789 16.0639H36.8032L37.2515 17.1798L37.6517 18.1917H37.6725L38.0728 17.1798L38.5171 16.0671Z" fill="#EFEDE8"/>
<path d="M39.3184 18.3758H39.617C39.7347 18.1831 39.8227 17.9736 39.8779 17.7546C39.9463 17.479 39.9786 17.1956 39.974 16.9117V16.0672H41.6935V18.3758H42.1321V19.4541H41.7551V18.7336H39.6946V19.4541H39.3184V18.3758ZM41.2796 18.3758V16.4234H40.3766V16.9373C40.3799 17.2126 40.353 17.4875 40.2966 17.757C40.2487 17.9732 40.1705 18.1815 40.0644 18.3758H41.2796Z" fill="#EFEDE8"/>
<path d="M42.791 16.0672H43.2041V17.428L43.1632 18.1092H43.1833L44.5209 16.0696H44.9076V18.732H44.4945V17.3712L44.5361 16.6899H44.5153L43.1777 18.732H42.791V16.0672Z" fill="#EFEDE8"/>
<path d="M45.752 18.3758H46.0497L46.2819 17.9403C46.3154 17.8726 46.3609 17.8116 46.4164 17.7602C46.4663 17.7178 46.527 17.6901 46.5917 17.6802V17.6601C46.3956 17.6574 46.2073 17.5828 46.0625 17.4504C45.9273 17.3215 45.8584 17.1302 45.8584 16.8853C45.8526 16.7742 45.8704 16.6631 45.9105 16.5594C45.9507 16.4556 46.0123 16.3615 46.0914 16.2833C46.2459 16.1376 46.4596 16.0639 46.7318 16.0639H47.9325V18.732H47.5187V17.705H46.8735L46.5068 18.391C46.4579 18.4882 46.3904 18.575 46.3083 18.6464C46.2303 18.7057 46.1341 18.736 46.0361 18.732H45.7527L45.752 18.3758ZM47.5179 16.4234H46.7974C46.6694 16.4162 46.5422 16.4486 46.4332 16.5162C46.3878 16.5507 46.352 16.5961 46.3289 16.6481C46.3058 16.7002 46.2962 16.7573 46.3011 16.814V16.9741C46.2962 17.031 46.3057 17.0882 46.3288 17.1404C46.3519 17.1926 46.3878 17.2381 46.4332 17.2727C46.5422 17.3403 46.6694 17.3727 46.7974 17.3656H47.5179V16.4234Z" fill="#EFEDE8"/>
</svg>
